<?xml version="1.0" encoding="UTF-8"?>
<svg id="Layer_2" data-name="Layer 2" xmlns="http://www.w3.org/2000/svg" viewBox="0 0 141.12 225.24">
  <defs>
    <style>
      .cls-1 {
        fill: #3c3c3a;
      }
    </style>
  </defs>
  <g id="Layer_1-2" data-name="Layer 1">
    <g>
      <path class="cls-1" d="M38.6,.22c.43-.03,.86-.1,1.28-.1,11.65-.04,23.3-.07,34.96-.11,1.55,0,3.09,0,4.64-.01,.96-.01,1.44,.35,1.43,1.4-.04,6.75-.04,13.5-.04,20.24,0,5.73,.07,11.46,0,17.19-.08,6.93-.4,13.87-.37,20.8,.03,6.89,.53,13.79,.52,20.68-.02,17.46-.25,34.91-.33,52.37-.03,8.33,.22,16.66,.12,25-.05,4.66-.58,9.32-.85,13.98-.25,4.44-.16,8.91-.72,13.31-.83,6.52-2.55,12.83-5.72,18.68-3.14,5.79-7.6,10.2-13.21,13.6-3.75,2.27-7.56,4.38-11.61,6.05-1.81,.74-3.7,1.28-5.57,1.87-.36,.11-.78,.02-1.17,.02-.06-.11-.12-.23-.18-.35,.66-.48,1.28-1.02,1.98-1.44,5.65-3.4,9.02-8.49,10.98-14.66,1.96-6.18,2.71-12.56,3.29-18.98,.44-4.88,1.25-9.72,1.62-14.6,.28-3.67,.12-7.38,.18-11.08,.12-7.65,.29-15.3,.39-22.95,.07-5.13,.02-10.26,.1-15.39,.09-6.03,.38-12.06,.36-18.08-.03-7.39-.33-14.77-.44-22.16-.11-8.06-.16-16.13-.16-24.19,0-2.71,.35-5.42,.34-8.13,0-2.74-.34-5.49-.37-8.24-.07-5.84,.04-11.68-.05-17.53-.09-5.66-.41-11.3-1.55-16.86-.92-4.49-3.83-7.05-8.13-8.35-3.37-1.02-6.81-1.2-10.27-1.38-.5-.03-1-.13-1.5-.2,0-.14,.02-.28,.03-.42"/>
      <path class="cls-1" d="M85.64,112.57c0-4.45-.05-8.89,.05-13.34,.01-.73,.49-1.59,1.01-2.16,4.88-5.29,9.89-10.45,15.4-15.11,2.32-1.96,4.22-4.4,6.38-6.55,2.35-2.34,4.84-4.53,7.16-6.9,2.6-2.67,5.05-5.49,7.62-8.19,1.27-1.33,2.68-2.54,4.05-3.78,.96-.87,1.41-.85,2.05,.22,1.57,2.61,3.16,5.22,4.56,7.93,2.34,4.5,3.96,9.29,5.18,14.2,1.8,7.22,2.34,14.55,1.85,21.98-.32,4.84-1.2,9.58-2.48,14.22-1.47,5.31-3.6,10.39-6.33,15.19-5.1,8.97-11.77,16.57-20.09,22.67-5.96,4.37-12.48,7.74-19.56,9.95-1.87,.58-3.76,1.1-5.64,1.64-.91,.26-1.39-.09-1.39-1.04,0-4.26-.02-8.51,.06-12.77,.03-1.75,.31-1.88,2.19-2.47,7.64-2.38,14.34-6.4,20.19-11.83,3.54-3.29,6.79-6.86,9.26-11.06,2.45-4.16,4.79-8.38,5.98-13.11,.97-3.86,2.04-7.73,2.56-11.66,.61-4.63,.54-9.33-.72-13.92-.27-.98-.36-2-.59-2.99-.41-1.75-1.08-1.97-2.34-.72-1.92,1.92-3.72,3.96-5.66,5.85-4.28,4.19-8.65,8.29-12.92,12.5-5.52,5.45-10.98,10.98-16.47,16.47-.16,.16-.31,.35-.5,.45-.28,.15-.68,.39-.87,.28-.21-.12-.33-.56-.34-.87-.03-1.7-.01-3.39-.01-5.09h.36"/>
      <path class="cls-1" d="M.02,96.48c.11-10,1.66-17.83,4.51-25.41,4.18-11.15,10.69-20.74,19.71-28.49,5.5-4.72,11.65-8.58,18.4-11.34,3.13-1.28,6.37-2.31,9.56-3.45,.18-.06,.36-.11,.54-.16,1.94-.48,2.19-.3,2.18,1.7-.01,3.99-.06,7.98-.06,11.98,0,1.09-.43,1.69-1.5,2.06-9.94,3.45-18.39,9.11-25.16,17.18-5.81,6.93-9.66,14.85-11.68,23.69-1.35,5.9-1.96,11.84-.99,17.82,1.06,6.56,2.77,12.93,5.9,18.88,2.65,5.05,5.88,9.64,9.89,13.67,4.83,4.85,10.29,8.81,16.61,11.52,1.9,.82,3.8,1.64,5.74,2.37,.99,.37,1.16,1.1,1.18,1.96,.05,3.12,.07,6.25,.09,9.37,0,1.13-.01,2.26-.07,3.39-.06,1.16-.38,1.4-1.51,1.1-4.86-1.28-9.56-3-14.06-5.23-7.75-3.84-14.6-8.91-20.43-15.27-5.71-6.24-10.23-13.27-13.46-21.13-1.87-4.55-3.25-9.24-4.2-14.04C.28,104.02-.1,99.32,.02,96.48"/>
    </g>
  </g>
</svg>