<?xml version="1.0" encoding="UTF-8"?>
<svg id="Layer_2" data-name="Layer 2" xmlns="http://www.w3.org/2000/svg" viewBox="0 0 718.62 225.24">
  <defs>
    <style>
      .cls-1 {
        fill: #3c3c3a;
      }
    </style>
  </defs>
  <g id="Layer_1-2" data-name="Layer 1">
    <path class="cls-1" d="M38.6,.22c.43-.03,.86-.1,1.28-.1,11.65-.04,23.3-.07,34.96-.11,1.55,0,3.09,0,4.64-.01,.96-.01,1.44,.35,1.43,1.4-.04,6.75-.04,13.5-.04,20.24,0,5.73,.07,11.46,0,17.19-.08,6.93-.4,13.87-.37,20.8,.03,6.89,.53,13.79,.52,20.68-.02,17.46-.25,34.91-.33,52.37-.03,8.33,.22,16.66,.12,25-.05,4.66-.58,9.32-.85,13.98-.25,4.44-.16,8.91-.72,13.31-.83,6.52-2.55,12.83-5.72,18.68-3.14,5.79-7.6,10.2-13.21,13.6-3.75,2.27-7.56,4.38-11.61,6.05-1.81,.74-3.7,1.28-5.57,1.87-.36,.11-.78,.02-1.17,.02-.06-.11-.12-.23-.18-.35,.66-.48,1.28-1.02,1.98-1.44,5.65-3.4,9.02-8.49,10.98-14.66,1.96-6.18,2.71-12.56,3.29-18.98,.44-4.88,1.25-9.72,1.62-14.6,.28-3.67,.12-7.38,.18-11.08,.12-7.65,.29-15.3,.39-22.95,.07-5.13,.02-10.26,.1-15.39,.09-6.03,.38-12.06,.36-18.08-.03-7.39-.33-14.77-.44-22.16-.11-8.06-.16-16.13-.16-24.19,0-2.71,.35-5.42,.34-8.13,0-2.74-.34-5.49-.37-8.24-.07-5.84,.04-11.68-.05-17.53-.09-5.66-.41-11.3-1.55-16.86-.92-4.49-3.83-7.05-8.13-8.35-3.37-1.02-6.81-1.2-10.27-1.38-.5-.03-1-.13-1.5-.2,0-.14,.02-.28,.03-.42"/>
    <path class="cls-1" d="M85.64,112.57c0-4.45-.05-8.89,.05-13.34,.01-.73,.49-1.59,1.01-2.16,4.88-5.29,9.89-10.45,15.4-15.11,2.32-1.96,4.22-4.4,6.38-6.55,2.35-2.34,4.84-4.53,7.16-6.9,2.6-2.67,5.05-5.49,7.62-8.19,1.27-1.33,2.68-2.54,4.05-3.78,.96-.87,1.41-.85,2.05,.22,1.57,2.61,3.16,5.22,4.56,7.93,2.34,4.5,3.96,9.29,5.18,14.2,1.8,7.22,2.34,14.55,1.85,21.98-.32,4.84-1.2,9.58-2.48,14.22-1.47,5.31-3.6,10.39-6.33,15.19-5.1,8.97-11.77,16.57-20.09,22.67-5.96,4.37-12.48,7.74-19.56,9.95-1.87,.58-3.76,1.1-5.64,1.64-.91,.26-1.39-.09-1.39-1.04,0-4.26-.02-8.51,.06-12.77,.03-1.75,.31-1.88,2.19-2.47,7.64-2.38,14.34-6.4,20.19-11.83,3.54-3.29,6.79-6.86,9.26-11.06,2.45-4.16,4.79-8.38,5.98-13.11,.97-3.86,2.04-7.73,2.56-11.66,.61-4.63,.54-9.33-.72-13.92-.27-.98-.36-2-.59-2.99-.41-1.75-1.08-1.97-2.34-.72-1.92,1.92-3.72,3.96-5.66,5.85-4.28,4.19-8.65,8.29-12.92,12.5-5.52,5.45-10.98,10.98-16.47,16.47-.16,.16-.31,.35-.5,.45-.28,.15-.68,.39-.87,.28-.21-.12-.33-.56-.34-.87-.03-1.7-.01-3.39-.01-5.09h.36"/>
    <path class="cls-1" d="M.02,96.48c.11-10,1.66-17.83,4.51-25.41,4.18-11.15,10.69-20.74,19.71-28.49,5.5-4.72,11.65-8.58,18.4-11.34,3.13-1.28,6.37-2.31,9.56-3.45,.18-.06,.36-.11,.54-.16,1.94-.48,2.19-.3,2.18,1.7-.01,3.99-.06,7.98-.06,11.98,0,1.09-.43,1.69-1.5,2.06-9.94,3.45-18.39,9.11-25.16,17.18-5.81,6.93-9.66,14.85-11.68,23.69-1.35,5.9-1.96,11.84-.99,17.82,1.06,6.56,2.77,12.93,5.9,18.88,2.65,5.05,5.88,9.64,9.89,13.67,4.83,4.85,10.29,8.81,16.61,11.52,1.9,.82,3.8,1.64,5.74,2.37,.99,.37,1.16,1.1,1.18,1.96,.05,3.12,.07,6.25,.09,9.37,0,1.13-.01,2.26-.07,3.39-.06,1.16-.38,1.4-1.51,1.1-4.86-1.28-9.56-3-14.06-5.23-7.75-3.84-14.6-8.91-20.43-15.27-5.71-6.24-10.23-13.27-13.46-21.13-1.87-4.55-3.25-9.24-4.2-14.04C.28,104.02-.1,99.32,.02,96.48"/>
    <path class="cls-1" d="M147.17,104.69l10.06-9.59c2.41,3.72,5.41,5.58,9.03,5.58,4.28,0,6.94-2.46,7.92-7.39l4.79-24.26h-19l2.43-12.02h34.39l-7.14,35.42c-1.47,7.38-4.11,12.67-7.93,15.86-3.83,3.2-9.07,4.79-15.71,4.79-8.8,0-15.08-2.8-18.85-8.39"/>
    <path class="cls-1" d="M238.88,83.32h13.75l-4.63,23.16c-2.84,2.15-6.12,3.79-9.86,4.91-3.75,1.13-7.68,1.69-11.82,1.69-5.56,0-10.41-1-14.57-3.02-4.15-2.02-7.38-4.85-9.65-8.52-2.28-3.66-3.41-7.87-3.41-12.65,0-6.32,1.46-12,4.4-16.99,2.93-5,7.04-8.91,12.32-11.74,5.28-2.84,11.36-4.24,18.22-4.24,10.89,0,18.88,3.37,23.96,10.12l-11.15,8.8c-1.78-2.2-3.75-3.75-5.89-4.67-2.15-.91-4.68-1.37-7.61-1.37-3.72,0-6.97,.82-9.79,2.47-2.8,1.64-4.96,3.9-6.47,6.79-1.52,2.88-2.28,6.14-2.28,9.81s1.22,6.77,3.68,8.99c2.46,2.23,5.92,3.34,10.37,3.34,2.67,0,5.1-.45,7.3-1.34l3.14-15.55Z"/>
    <path class="cls-1" d="M295.03,110.06c-4.19-2.02-7.4-4.85-9.66-8.52-2.25-3.66-3.37-7.87-3.37-12.65,0-6.27,1.44-11.93,4.36-16.96,2.9-5.02,6.97-8.95,12.2-11.78,5.23-2.84,11.2-4.24,17.91-4.24,5.07,0,9.58,.9,13.51,2.71,3.93,1.81,6.86,4.36,8.8,7.65l-11.23,8.95c-2.67-4.28-6.7-6.43-12.1-6.43-3.5,0-6.59,.82-9.27,2.47-2.67,1.64-4.75,3.92-6.23,6.83-1.5,2.9-2.24,6.16-2.24,9.77s1.2,6.7,3.6,8.95c2.41,2.25,5.69,3.38,9.82,3.38,5.23,0,9.71-2.12,13.43-6.36l9.19,9.03c-2.99,3.61-6.47,6.21-10.45,7.81-3.98,1.6-8.54,2.39-13.66,2.39-5.56,0-10.42-1-14.61-3.02"/>
    <path class="cls-1" d="M351.62,110.02c-4.11-2.04-7.27-4.89-9.5-8.56-2.22-3.66-3.33-7.85-3.33-12.57,0-6.27,1.44-11.93,4.36-16.96,2.9-5.02,6.96-8.95,12.17-11.78,5.21-2.84,11.14-4.24,17.79-4.24,5.54,0,10.37,1.02,14.48,3.06,4.11,2.04,7.27,4.89,9.51,8.56,2.22,3.67,3.33,7.85,3.33,12.57,0,6.27-1.46,11.93-4.36,16.95-2.9,5.02-6.96,8.95-12.17,11.78-5.22,2.84-11.14,4.24-17.79,4.24-5.56,0-10.38-1.02-14.5-3.06m24.93-12.41c2.63-1.72,4.63-4.03,6.05-6.95,1.42-2.9,2.12-6.1,2.12-9.62,0-3.72-1.13-6.69-3.41-8.91-2.28-2.22-5.47-3.33-9.55-3.33-3.45,0-6.49,.86-9.11,2.59-2.62,1.72-4.63,4.03-6.04,6.95-1.42,2.9-2.12,6.12-2.12,9.62,0,3.72,1.13,6.69,3.41,8.91,2.28,2.22,5.47,3.34,9.54,3.34,3.46,0,6.49-.87,9.11-2.6"/>
    <polygon class="cls-1" points="477.62 57.01 466.78 111.99 452.41 111.99 458.06 83.01 439.76 106.56 432.93 106.56 422.96 83.01 417.15 111.99 402.86 111.99 413.84 57.01 426.49 57.01 439.37 88.81 464.34 57.01 477.62 57.01"/>
    <path class="cls-1" d="M528.5,61.64c3.88,3.1,5.82,7.44,5.82,13.04,0,4.61-1.12,8.64-3.34,12.1-2.23,3.45-5.39,6.12-9.5,8-4.11,1.89-8.89,2.82-14.33,2.82h-11l-2.84,14.38h-15.54l10.98-54.98h23.25c7.12,0,12.61,1.55,16.49,4.63m-12.69,21.29c1.86-1.63,2.8-3.93,2.8-6.91,0-2.25-.76-3.94-2.24-5.07-1.5-1.12-3.63-1.68-6.4-1.68h-8.17l-3.21,16.1h9.26c3.45,0,6.12-.81,7.96-2.43"/>
    <path class="cls-1" d="M571.68,101.31h-23.4l-6.36,10.68h-16.41l35.25-54.98h15.32l13.27,54.98h-15.47l-2.2-10.68Zm-2.35-11.46l-3.7-17.83-10.51,17.83h14.21Z"/>
    <polygon class="cls-1" points="657.06 57.01 646.06 111.99 633.26 111.99 615.12 81.83 609.07 111.99 593.84 111.99 604.83 57.01 617.63 57.01 635.85 87.1 641.82 57.01 657.06 57.01"/>
    <polygon class="cls-1" points="690.42 92.51 686.58 111.99 671.03 111.99 674.95 92.12 660.98 57.01 676.6 57.01 685.24 78.92 702.84 57.01 718.62 57.01 690.42 92.51"/>
    <path class="cls-1" d="M282.59,131c1.29,1.04,1.94,2.49,1.94,4.35,0,1.59-.37,2.98-1.12,4.16-.75,1.18-1.82,2.09-3.2,2.73-1.38,.63-3.01,.95-4.89,.95h-4.23l-1.03,5.23h-4.41l3.8-18.97h7.67c2.37,0,4.2,.52,5.49,1.56m-3.7,7.6c.8-.67,1.19-1.63,1.19-2.87,0-.9-.3-1.58-.91-2.03-.6-.45-1.48-.68-2.61-.68h-3.44l-1.33,6.59h3.71c1.46,0,2.59-.33,3.38-1"/>
    <path class="cls-1" d="M302.72,139.88c-.96,1.26-2.29,2.16-3.99,2.68l3.31,5.85h-4.64l-2.98-5.31h-3.74l-1.06,5.31h-4.42l3.8-18.97h7.72c2.35,0,4.17,.51,5.48,1.54,1.3,1.03,1.95,2.48,1.95,4.34s-.48,3.29-1.43,4.55m-4.21-1.27c.8-.67,1.2-1.63,1.2-2.87,0-.9-.31-1.58-.92-2.03-.61-.45-1.49-.68-2.63-.68h-3.47l-1.33,6.59h3.74c1.46,0,2.6-.33,3.4-1"/>
    <path class="cls-1" d="M310.03,147.71c-1.39-.69-2.46-1.65-3.2-2.9-.74-1.25-1.11-2.68-1.11-4.31,0-2.15,.5-4.09,1.48-5.82,.99-1.72,2.37-3.09,4.14-4.08,1.78-.99,3.82-1.49,6.11-1.49,1.9,0,3.54,.34,4.93,1.03,1.39,.69,2.46,1.66,3.2,2.9,.74,1.25,1.11,2.69,1.11,4.31,0,2.15-.49,4.09-1.48,5.81-.98,1.73-2.36,3.08-4.14,4.08-1.78,.99-3.82,1.49-6.11,1.49-1.9,0-3.54-.34-4.93-1.03m8.97-3.71c1.05-.67,1.85-1.57,2.41-2.69,.56-1.12,.84-2.36,.84-3.71,0-1.44-.45-2.59-1.35-3.45-.9-.86-2.18-1.29-3.82-1.29-1.39,0-2.61,.33-3.66,1-1.05,.67-1.85,1.56-2.41,2.68-.56,1.12-.84,2.36-.84,3.71,0,1.44,.45,2.6,1.36,3.46,.9,.85,2.18,1.29,3.82,1.29,1.39,0,2.61-.33,3.66-1"/>
    <path class="cls-1" d="M344.95,131c1.29,1.04,1.94,2.49,1.94,4.35,0,1.59-.37,2.98-1.12,4.16-.75,1.18-1.82,2.09-3.2,2.73-1.39,.63-3.02,.95-4.89,.95h-4.23l-1.03,5.23h-4.41l3.8-18.97h7.67c2.37,0,4.2,.52,5.49,1.56m-3.7,7.6c.8-.67,1.19-1.63,1.19-2.87,0-.9-.3-1.58-.91-2.03-.6-.45-1.48-.68-2.61-.68h-3.44l-1.33,6.59h3.71c1.46,0,2.59-.33,3.38-1"/>
    <polygon class="cls-1" points="355.02 132.97 354.21 137.09 363.01 137.09 362.34 140.5 353.5 140.5 352.64 144.89 362.99 144.89 362.26 148.41 347.57 148.41 351.36 129.45 365.7 129.45 364.96 132.97 355.02 132.97"/>
    <path class="cls-1" d="M383.26,139.88c-.96,1.26-2.29,2.16-3.99,2.68l3.31,5.85h-4.64l-2.98-5.31h-3.74l-1.06,5.31h-4.42l3.8-18.97h7.72c2.35,0,4.17,.51,5.48,1.54,1.3,1.03,1.95,2.48,1.95,4.34s-.48,3.29-1.43,4.55m-4.21-1.27c.8-.67,1.2-1.63,1.2-2.87,0-.9-.31-1.58-.92-2.03-.61-.45-1.49-.68-2.63-.68h-3.47l-1.33,6.59h3.74c1.46,0,2.6-.33,3.4-1"/>
    <polygon class="cls-1" points="392.39 133.02 386.32 133.02 387.06 129.45 403.58 129.45 402.86 133.02 396.81 133.02 393.72 148.41 389.33 148.41 392.39 133.02"/>
    <polygon class="cls-1" points="412.2 141.83 410.9 148.41 406.51 148.41 407.84 141.64 402.96 129.45 407.35 129.45 410.74 137.9 417.54 129.45 422.06 129.45 412.2 141.83"/>
    <polygon class="cls-1" points="452.93 129.45 449.17 148.41 445.05 148.41 447.27 137.14 440.03 146.41 438.08 146.41 434.18 137.03 431.9 148.41 427.78 148.41 431.58 129.45 435.15 129.45 439.89 141.26 449.17 129.45 452.93 129.45"/>
    <path class="cls-1" d="M467.16,144.35h-8.84l-2.47,4.07h-4.69l12.28-18.97h4.34l4.66,18.97h-4.39l-.89-4.07Zm-.73-3.33l-1.6-7.32-4.47,7.32h6.07Z"/>
    <polygon class="cls-1" points="495.61 129.45 491.82 148.41 488.22 148.41 481.14 136.54 478.76 148.41 474.42 148.41 478.22 129.45 481.85 129.45 488.92 141.34 491.28 129.45 495.61 129.45"/>
    <path class="cls-1" d="M509.81,144.35h-8.84l-2.47,4.07h-4.69l12.28-18.97h4.34l4.66,18.97h-4.39l-.89-4.07Zm-.73-3.33l-1.6-7.32-4.47,7.32h6.07Z"/>
    <path class="cls-1" d="M531.61,138.63h4.01l-1.57,7.8c-.96,.74-2.07,1.31-3.33,1.71-1.27,.4-2.58,.59-3.93,.59-1.9,0-3.55-.34-4.96-1.03-1.41-.69-2.5-1.65-3.27-2.9-.77-1.25-1.15-2.68-1.15-4.31,0-2.15,.5-4.09,1.49-5.83,.99-1.73,2.39-3.09,4.2-4.08,1.81-.98,3.89-1.48,6.23-1.48,1.81,0,3.37,.28,4.71,.84,1.33,.56,2.4,1.39,3.21,2.47l-3.14,2.55c-.63-.74-1.35-1.28-2.14-1.61-.79-.33-1.73-.5-2.82-.5-1.45,0-2.72,.32-3.82,.96-1.1,.64-1.96,1.52-2.56,2.64-.6,1.12-.91,2.37-.91,3.77,0,1.46,.48,2.62,1.42,3.48,.95,.86,2.31,1.29,4.08,1.29,1.12,0,2.17-.23,3.15-.68l1.11-5.69Z"/>
    <polygon class="cls-1" points="545.15 132.97 544.34 137.09 553.15 137.09 552.47 140.5 543.63 140.5 542.77 144.89 553.12 144.89 552.39 148.41 537.7 148.41 541.5 129.45 555.83 129.45 555.1 132.97 545.15 132.97"/>
    <polygon class="cls-1" points="581.04 129.45 577.27 148.41 573.15 148.41 575.37 137.14 568.13 146.41 566.18 146.41 562.28 137.03 560 148.41 555.88 148.41 559.68 129.45 563.26 129.45 568 141.26 577.27 129.45 581.04 129.45"/>
    <polygon class="cls-1" points="589.21 132.97 588.4 137.09 597.21 137.09 596.53 140.5 587.7 140.5 586.83 144.89 597.18 144.89 596.45 148.41 581.76 148.41 585.56 129.45 599.89 129.45 599.16 132.97 589.21 132.97"/>
    <polygon class="cls-1" points="621.14 129.45 617.34 148.41 613.74 148.41 606.66 136.54 604.28 148.41 599.94 148.41 603.74 129.45 607.37 129.45 614.44 141.34 616.8 129.45 621.14 129.45"/>
    <polygon class="cls-1" points="628.83 133.02 622.76 133.02 623.49 129.45 640.02 129.45 639.3 133.02 633.25 133.02 630.16 148.41 625.77 148.41 628.83 133.02"/>
    <path class="cls-1" d="M651.25,147.71c-1.42-.69-2.51-1.65-3.27-2.9-.76-1.25-1.14-2.68-1.14-4.31,0-2.15,.5-4.09,1.48-5.82,.99-1.72,2.37-3.08,4.16-4.08s3.84-1.49,6.15-1.49c1.69,0,3.2,.29,4.5,.87,1.3,.58,2.28,1.41,2.95,2.49l-3.17,2.6c-1.01-1.48-2.54-2.22-4.58-2.22-1.39,0-2.62,.32-3.68,.97-1.07,.65-1.9,1.54-2.48,2.66-.59,1.12-.88,2.37-.88,3.74,0,1.46,.47,2.62,1.4,3.48,.93,.86,2.23,1.29,3.91,1.29,2,0,3.68-.73,5.04-2.2l2.6,2.66c-1.88,2.18-4.55,3.28-8.02,3.28-1.9,0-3.56-.34-4.97-1.03"/>
    <path class="cls-1" d="M666.3,147.94c-.47-.46-.7-1.04-.7-1.74,0-.83,.27-1.51,.81-2.03,.54-.52,1.21-.79,2.01-.79,.72,0,1.31,.23,1.77,.68,.46,.45,.69,1.04,.69,1.76,0,.82-.28,1.49-.83,2.02-.55,.53-1.21,.8-1.96,.8s-1.32-.23-1.79-.69"/>
    <path class="cls-1" d="M691.05,139.88c-.96,1.26-2.29,2.16-3.99,2.68l3.31,5.85h-4.64l-2.98-5.31h-3.74l-1.06,5.31h-4.42l3.8-18.97h7.72c2.35,0,4.17,.51,5.48,1.54,1.3,1.03,1.95,2.48,1.95,4.34s-.48,3.29-1.43,4.55m-4.21-1.27c.8-.67,1.2-1.63,1.2-2.87,0-.9-.31-1.58-.92-2.03-.61-.45-1.49-.68-2.63-.68h-3.47l-1.33,6.59h3.74c1.46,0,2.6-.33,3.4-1"/>
    <path class="cls-1" d="M693.33,147.94c-.47-.46-.7-1.04-.7-1.74,0-.83,.27-1.51,.81-2.03,.54-.52,1.21-.79,2.01-.79,.72,0,1.31,.23,1.77,.68,.46,.45,.69,1.04,.69,1.76,0,.82-.28,1.49-.83,2.02-.55,.53-1.21,.8-1.96,.8s-1.32-.23-1.79-.69"/>
  </g>
</svg>